<?xml version="1.0" encoding="UTF-8"?> <svg xmlns="http://www.w3.org/2000/svg" xmlns:xlink="http://www.w3.org/1999/xlink" version="1.1" id="Layer_1" x="0px" y="0px" viewBox="0 0 1024 1024" xml:space="preserve"> <g> <path fill-rule="evenodd" clip-rule="evenodd" d="M471.276,235.821c-10.785,10.267-16.323,23.009-19.226,36.679 c-4.665,21.964-3.494,43.947,3.575,65.295c8.89,26.847,31.029,42.676,59.145,43.087c27.627,0.403,50.447-14.761,59.607-41.434 c9.427-27.455,9.48-55.009-4.404-81.371c-10.473-19.881-26.926-32.588-48.53-38.715c-2.18-0.619-4.21-1.773-6.1-3.861 c1.122-0.133,2.267-0.477,3.366-0.368c31.426,3.11,58.103,15.17,75.778,42.411c25.202,38.84,12.324,91.8-27.366,115.458 c-15.956,9.509-33.139,15.281-51.603,15.283c-49.94,0.006-98.272-35.626-93.153-96.289c1.948-23.079,12.734-42.226,31.63-56.47 C460.056,230.957,465.374,231.14,471.276,235.821z M573.273,168.167c-0.473-22.491,4.232-22.026-22.273-31.801 c-29.978-11.056-59.676-9.125-85.643,11.826c-23.797,19.202-24.878,56.339-0.793,73.966c12.608,9.226,26.903,16.187,40.617,23.845 c10.506,5.866,21.374,11.081,31.946,16.832c26.453,14.387,29.167,58.394,0.568,75.253c-14.768,8.706-30.394,10.739-46.566,6.523 c-8.865-2.311-17.169-6.771-25.642-10.227c1.865,4.376,4.216,8.526,9.528,10.818c22.203,9.579,44.443,8.852,66.482,0.09 c22.462-8.931,32.761-27.14,30.309-51.12c-3.261-31.892-20.476-53.321-48.515-67.625c-14.465-7.379-29.169-15.031-41.839-25.006 c-19.504-15.354-18.107-43.142,1.208-56.216c18.989-12.853,46.187-11.107,63.654,3.923c10.464,9.006,18.195,19.883,23.448,32.61 c0.54,1.309,1.76,2.339,3.527,4.604C573.29,179.178,573.389,173.671,573.273,168.167z"></path> <path fill-rule="evenodd" clip-rule="evenodd" fill="#CAA34D" d="M468.561,233.107c-10.785,10.267-16.323,23.009-19.226,36.679 c-4.665,21.964-3.494,43.947,3.575,65.295c8.89,26.847,31.029,42.676,59.145,43.087c27.627,0.403,50.447-14.761,59.607-41.434 c9.427-27.455,9.48-55.009-4.404-81.371c-10.473-19.881-26.926-32.588-48.53-38.715c-2.18-0.619-4.21-1.773-6.1-3.861 c1.122-0.133,2.267-0.477,3.366-0.368c31.426,3.11,58.103,15.17,75.778,42.411c25.202,38.84,12.324,91.8-27.366,115.458 c-15.956,9.509-33.139,15.281-51.603,15.283c-49.94,0.006-98.272-35.626-93.152-96.289c1.948-23.079,12.734-42.226,31.63-56.47 C457.342,228.243,462.659,228.426,468.561,233.107z M570.559,165.453c-0.473-22.491,4.232-22.026-22.273-31.801 c-29.978-11.056-59.676-9.125-85.643,11.826c-23.797,19.202-24.878,56.339-0.793,73.966c12.608,9.226,26.903,16.187,40.617,23.845 c10.506,5.866,21.374,11.081,31.946,16.832c26.453,14.387,29.167,58.394,0.568,75.253c-14.768,8.706-30.394,10.739-46.566,6.523 c-8.865-2.311-17.169-6.771-25.642-10.227c1.865,4.376,4.216,8.526,9.528,10.818c22.203,9.579,44.443,8.852,66.482,0.09 c22.462-8.931,32.761-27.14,30.309-51.12c-3.261-31.892-20.476-53.321-48.515-67.625c-14.465-7.379-29.169-15.031-41.839-25.006 c-19.504-15.354-18.107-43.142,1.208-56.216c18.989-12.853,46.187-11.107,63.654,3.923c10.463,9.006,18.195,19.883,23.448,32.61 c0.54,1.309,1.76,2.339,3.527,4.604C570.576,176.464,570.675,170.956,570.559,165.453z"></path> <g> <path d="M243.506,818.516c3.915,0,7.044,1.313,9.388,3.937c2.344,2.624,3.516,6.143,3.516,10.557c0,4.4-1.172,7.914-3.516,10.538 c-2.344,2.624-5.473,3.937-9.388,3.937c-3.927,0-7.066-1.309-9.416-3.927c-2.35-2.618-3.525-6.134-3.525-10.547 c0-4.414,1.175-7.933,3.525-10.557C236.44,819.829,239.579,818.516,243.506,818.516z M243.506,821.583 c-2.742,0-4.921,1.023-6.536,3.067c-1.615,2.044-2.422,4.831-2.422,8.36c0,3.516,0.807,6.297,2.422,8.341 c1.615,2.044,3.793,3.067,6.536,3.067c2.743,0,4.916-1.023,6.518-3.067c1.602-2.044,2.403-4.825,2.403-8.341 c0-3.529-0.801-6.316-2.403-8.36C248.421,822.606,246.249,821.583,243.506,821.583z"></path> <path d="M297.014,819.021h4.283l10.641,27.921h-3.927l-2.543-7.163h-12.586l-2.544,7.163h-3.983L297.014,819.021z M299.146,822.742l-5.124,13.895h10.267L299.146,822.742z"></path> <path d="M323.675,819.021h3.778v24.742h13.596v3.179h-17.374V819.021z"></path> <path d="M352.673,819.021h17.654v3.179h-13.876v8.266h13.297v3.179h-13.297v10.117h14.213v3.179h-17.991V819.021z"></path> <path d="M403.571,842.959v-7.499h-6.171v-3.104h9.912v11.987c-1.459,1.034-3.067,1.818-4.825,2.347 c-1.758,0.529-3.635,0.795-5.629,0.795c-4.364,0-7.777-1.275-10.239-3.824c-2.462-2.549-3.693-6.1-3.693-10.65 c0-4.563,1.232-8.12,3.693-10.669c2.462-2.549,5.875-3.824,10.239-3.824c1.821,0,3.55,0.224,5.19,0.673 c1.639,0.449,3.151,1.109,4.535,1.982v4.021c-1.396-1.184-2.88-2.076-4.451-2.674s-3.223-0.898-4.956-0.898 c-3.416,0-5.982,0.954-7.696,2.861c-1.714,1.908-2.571,4.75-2.571,8.528c0,3.764,0.857,6.601,2.571,8.509 c1.714,1.908,4.28,2.861,7.696,2.861c1.334,0,2.525-0.116,3.572-0.346C401.794,843.804,402.736,843.445,403.571,842.959z"></path> <path d="M421.872,819.021h17.654v3.179H425.65v8.266h13.297v3.179H425.65v10.117h14.213v3.179h-17.991V819.021z"></path> <path d="M466.972,833.851c0.811,0.275,1.599,0.86,2.366,1.758c0.767,0.898,1.536,2.132,2.31,3.703l3.834,7.63h-4.058l-3.572-7.163 c-0.923-1.87-1.817-3.11-2.684-3.722c-0.867-0.611-2.048-0.916-3.544-0.916h-4.114v11.801h-3.778v-27.921h8.528 c3.191,0,5.573,0.668,7.144,2.001s2.356,3.347,2.356,6.041c0,1.758-0.409,3.217-1.225,4.376 C469.718,832.598,468.531,833.402,466.972,833.851z M457.509,822.125v9.912h4.75c1.821,0,3.195-0.421,4.124-1.262 c0.929-0.842,1.393-2.08,1.393-3.712c0-1.633-0.465-2.865-1.393-3.693c-0.928-0.828-2.303-1.244-4.124-1.244H457.509z"></path> <path d="M488.004,819.021h17.654v3.179h-13.876v8.266h13.297v3.179h-13.297v10.117h14.213v3.179h-17.991V819.021z"></path> <path d="M539.699,819.021h3.778v27.921h-3.778V819.021z"></path> <path d="M558.655,819.021h5.087l12.38,23.358v-23.358h3.666v27.921h-5.087l-12.38-23.358v23.358h-3.666V819.021z"></path> <path d="M611.703,819.937v3.684c-1.434-0.686-2.787-1.197-4.058-1.534c-1.272-0.337-2.5-0.505-3.684-0.505 c-2.057,0-3.645,0.398-4.759,1.197c-1.116,0.798-1.674,1.932-1.674,3.404c0,1.234,0.37,2.166,1.113,2.796 c0.741,0.63,2.147,1.137,4.217,1.524l2.282,0.467c2.816,0.537,4.896,1.481,6.237,2.833c1.339,1.352,2.01,3.164,2.01,5.433 c0,2.706-0.907,4.756-2.721,6.153c-1.814,1.397-4.473,2.094-7.976,2.094c-1.322,0-2.729-0.15-4.217-0.449 c-1.49-0.299-3.033-0.742-4.629-1.328v-3.89c1.534,0.86,3.035,1.509,4.507,1.945c1.47,0.436,2.917,0.655,4.339,0.655 c2.156,0,3.821-0.425,4.993-1.272c1.171-0.847,1.758-2.057,1.758-3.628c0-1.371-0.421-2.444-1.262-3.217 c-0.842-0.772-2.224-1.352-4.142-1.739l-2.3-0.449c-2.818-0.561-4.857-1.44-6.115-2.637c-1.26-1.197-1.889-2.861-1.889-4.993 c0-2.468,0.87-4.413,2.609-5.835c1.739-1.421,4.135-2.132,7.19-2.132c1.309,0,2.643,0.118,4.002,0.355 C608.89,819.109,610.282,819.464,611.703,819.937z"></path> <path d="M626.937,819.021h8.528c3.129,0,5.495,0.707,7.097,2.123c1.601,1.416,2.403,3.488,2.403,6.218 c0,2.755-0.802,4.838-2.403,6.246c-1.603,1.408-3.969,2.113-7.097,2.113h-4.75v11.221h-3.778V819.021z M630.715,822.125v10.491 h4.75c1.758,0,3.116-0.454,4.077-1.365c0.959-0.911,1.44-2.207,1.44-3.89c0-1.67-0.481-2.96-1.44-3.871 c-0.961-0.911-2.319-1.365-4.077-1.365H630.715z"></path> <path d="M657.693,819.021h3.778v27.921h-3.778V819.021z"></path> <path d="M689.89,833.851c0.81,0.275,1.599,0.86,2.366,1.758c0.767,0.898,1.535,2.132,2.31,3.703l3.834,7.63h-4.058l-3.572-7.163 c-0.924-1.87-1.818-3.11-2.684-3.722c-0.868-0.611-2.048-0.916-3.544-0.916h-4.114v11.801h-3.778v-27.921h8.528 c3.19,0,5.573,0.668,7.144,2.001c1.571,1.333,2.356,3.347,2.356,6.041c0,1.758-0.409,3.217-1.225,4.376 C692.635,832.598,691.448,833.402,689.89,833.851z M680.427,822.125v9.912h4.75c1.82,0,3.194-0.421,4.124-1.262 c0.928-0.842,1.393-2.08,1.393-3.712c0-1.633-0.466-2.865-1.393-3.693c-0.929-0.828-2.304-1.244-4.124-1.244H680.427z"></path> <path d="M716.569,819.021h4.283l10.641,27.921h-3.927l-2.544-7.163h-12.586l-2.543,7.163h-3.983L716.569,819.021z M718.701,822.742l-5.124,13.895h10.267L718.701,822.742z"></path> <path d="M736.385,819.021h23.62v3.179h-9.912v24.742h-3.796V822.2h-9.912V819.021z"></path> <path d="M778.512,819.021h4.283l10.641,27.921h-3.927l-2.544-7.163h-12.586l-2.543,7.163h-3.983L778.512,819.021z M774.79,810.699 h2.207c0.137,0.935,0.507,1.636,1.113,2.104c0.604,0.467,1.449,0.701,2.534,0.701c1.071,0,1.908-0.23,2.506-0.692 c0.598-0.462,0.978-1.165,1.141-2.113h2.207c-0.125,1.782-0.681,3.123-1.664,4.021c-0.986,0.898-2.383,1.346-4.189,1.346 c-1.809,0-3.206-0.449-4.189-1.346C775.469,813.822,774.914,812.481,774.79,810.699z M780.644,822.742l-5.124,13.895h10.267 L780.644,822.742z"></path> </g> <g> <path d="M183.59,868.536h8.528c3.13,0,5.495,0.707,7.097,2.123c1.602,1.416,2.403,3.488,2.403,6.218 c0,2.755-0.801,4.838-2.403,6.246c-1.602,1.408-3.967,2.113-7.097,2.113h-4.75v11.221h-3.778V868.536z M187.367,871.641v10.492 h4.75c1.758,0,3.117-0.454,4.077-1.365c0.96-0.911,1.44-2.207,1.44-3.89c0-1.67-0.48-2.96-1.44-3.871 c-0.96-0.911-2.319-1.365-4.077-1.365H187.367z"></path> <path d="M213.197,868.536h17.654v3.179h-13.876v8.266h13.297v3.179h-13.297v10.117h14.213v3.179h-17.991V868.536z"></path> <path d="M243.907,868.536h5.087l12.38,23.358v-23.358h3.666v27.921h-5.087l-12.38-23.358v23.358h-3.666V868.536z"></path> <path d="M275.198,868.536h23.62v3.179h-9.912v24.742h-3.797v-24.742h-9.912V868.536z"></path> <path d="M322.216,883.367c0.811,0.275,1.599,0.86,2.366,1.758c0.767,0.898,1.536,2.132,2.31,3.703l3.834,7.63h-4.058l-3.572-7.163 c-0.923-1.87-1.817-3.11-2.684-3.722c-0.867-0.612-2.048-0.916-3.544-0.916h-4.114v11.801h-3.778v-27.921h8.528 c3.191,0,5.573,0.668,7.144,2.001c1.571,1.333,2.356,3.348,2.356,6.041c0,1.758-0.409,3.217-1.225,4.376 C324.963,882.114,323.775,882.918,322.216,883.367z M312.753,871.641v9.912h4.75c1.821,0,3.195-0.421,4.124-1.262 c0.929-0.841,1.393-2.08,1.393-3.712c0-1.633-0.465-2.865-1.393-3.694s-2.303-1.244-4.124-1.244H312.753z"></path> <path d="M341.668,868.536h3.796v16.962c0,2.992,0.543,5.147,1.627,6.461c1.085,1.315,2.842,1.973,5.274,1.973 c2.419,0,4.17-0.658,5.255-1.973c1.085-1.315,1.627-3.469,1.627-6.461v-16.962h3.796v17.43c0,3.641-0.9,6.39-2.702,8.247 s-4.46,2.787-7.976,2.787c-3.528,0-6.193-0.93-7.995-2.787c-1.802-1.857-2.702-4.606-2.702-8.247V868.536z"></path> <path d="M395.459,860.906h3.516l3.946,4.975h-2.599l-3.104-3.329l-3.104,3.329h-2.6L395.459,860.906z M395.328,868.536h3.778 v27.921h-3.778V868.536z"></path> <path d="M413.136,868.536h5.087l12.38,23.358v-23.358h3.665v27.921h-5.087l-12.38-23.358v23.358h-3.665V868.536z"></path> <path d="M444.426,868.536h23.62v3.179h-9.912v24.742h-3.796v-24.742h-9.912V868.536z"></path> <path d="M491.444,883.367c0.811,0.275,1.599,0.86,2.366,1.758c0.767,0.898,1.536,2.132,2.31,3.703l3.834,7.63h-4.058l-3.572-7.163 c-0.923-1.87-1.817-3.11-2.684-3.722c-0.867-0.612-2.048-0.916-3.544-0.916h-4.114v11.801h-3.778v-27.921h8.528 c3.191,0,5.573,0.668,7.144,2.001s2.356,3.348,2.356,6.041c0,1.758-0.409,3.217-1.225,4.376S493.003,882.918,491.444,883.367z M481.981,871.641v9.912h4.75c1.821,0,3.195-0.421,4.124-1.262c0.929-0.841,1.393-2.08,1.393-3.712 c0-1.633-0.465-2.865-1.393-3.694c-0.928-0.828-2.303-1.244-4.124-1.244H481.981z"></path> <path d="M511.326,868.536h17.654v3.179h-13.876v8.266h13.297v3.179h-13.297v10.117h14.213v3.179h-17.991V868.536z"></path> <path d="M549.238,868.536h4.283l10.641,27.921h-3.927l-2.544-7.163h-12.586l-2.544,7.163h-3.983L549.238,868.536z M551.37,872.258 l-5.124,13.895h10.267L551.37,872.258z"></path> <path d="M593.115,892.474v-7.499h-6.172v-3.104h9.912v11.988c-1.459,1.034-3.067,1.818-4.825,2.347 c-1.758,0.529-3.636,0.795-5.629,0.795c-4.365,0-7.778-1.275-10.241-3.824c-2.461-2.549-3.692-6.1-3.692-10.65 c0-4.563,1.231-8.12,3.692-10.669c2.463-2.549,5.876-3.824,10.241-3.824c1.82,0,3.549,0.224,5.188,0.673 c1.64,0.449,3.153,1.109,4.537,1.982v4.021c-1.397-1.184-2.88-2.076-4.451-2.674c-1.571-0.598-3.224-0.898-4.956-0.898 c-3.417,0-5.982,0.954-7.697,2.861c-1.713,1.908-2.57,4.75-2.57,8.528c0,3.765,0.857,6.602,2.57,8.509 c1.715,1.907,4.281,2.861,7.697,2.861c1.333,0,2.525-0.116,3.572-0.346C591.338,893.32,592.279,892.96,593.115,892.474z"></path> <path d="M617.466,868.536h4.283l10.641,27.921h-3.927l-2.543-7.163h-12.586l-2.543,7.163h-3.983L617.466,868.536z M619.598,872.258l-5.124,13.895h10.267L619.598,872.258z"></path> <path d="M661.663,868.536h16.046v3.179h-12.268v8.228h11.071v3.179h-11.071v13.334h-3.778V868.536z"></path> <path d="M693.889,868.536h4.283l10.641,27.921h-3.927l-2.543-7.163h-12.586l-2.543,7.163h-3.983L693.889,868.536z M696.021,872.258l-5.124,13.895h10.267L696.021,872.258z"></path> <path d="M719.401,868.536h5.629l7.125,19.001l7.163-19.001h5.629v27.921h-3.684V871.94l-7.2,19.15h-3.796l-7.2-19.15v24.517 h-3.665V868.536z"></path> <path d="M758.957,868.536h3.778v27.921h-3.778V868.536z"></path> <path d="M776.762,868.536h3.778v24.742h13.596v3.179h-17.374V868.536z"></path> <path d="M804.612,868.536h3.778v27.921h-3.778V868.536z"></path> <path d="M822.42,868.536h17.654v3.179h-13.876v8.266h13.297v3.179h-13.297v10.117h14.213v3.179H822.42V868.536z"></path> </g> <g> <path d="M226.405,579.026l-2.343-37.399h2.769c12.141,23.324,29.606,40.414,47.071,40.414c13.418,0,22.577-8.444,22.577-19.906 c0-16.889-14.058-25.335-30.883-35.187c-22.79-12.868-39.404-22.117-39.404-45.844c0-24.129,20.447-38.203,44.515-38.203 c11.502,0,25.986,3.218,38.765,8.043l4.259,36.193h-2.769c-11.076-20.107-25.985-34.785-41.533-34.785 c-10.437,0-20.022,7.238-20.022,18.498c0,13.271,8.52,19.303,30.032,31.366c23.855,13.473,41.534,23.325,41.534,48.256 c0,29.357-24.494,41.422-46.858,41.422C259.418,591.894,241.314,586.063,226.405,579.026z"></path> <path d="M346.539,540.823c0-30.362,21.724-50.669,48.562-50.669c24.494,0,41.533,16.085,41.533,40.214v4.423h-66.453v2.212 c0,20.912,15.336,36.795,35.144,36.795c11.501,0,22.364-5.831,28.115-15.281l2.556,1.408 c-5.325,18.095-20.447,31.366-41.321,31.366C369.329,591.29,346.539,571.587,346.539,540.823z M412.14,525.742 c-1.917-16.889-10.011-27.345-20.873-27.345c-11.076,0-18.743,11.059-20.66,27.747L412.14,525.742z"></path> <path d="M453.044,586.666c11.501-4.625,14.057-6.635,14.057-22.318v-92.692c0-19.906-3.621-21.113-14.27-26.139v-2.614 c13.418-0.804,26.837-3.016,40.042-6.836v128.282c0,15.683,2.556,17.693,14.27,22.318v2.614h-54.099V586.666z"></path> <path d="M522.91,540.823c0-30.362,21.724-50.669,48.561-50.669c24.495,0,41.534,16.085,41.534,40.214v4.423h-66.453v2.212 c0,20.912,15.335,36.795,35.144,36.795c11.501,0,22.365-5.831,28.116-15.281l2.555,1.408 c-5.324,18.095-20.446,31.366-41.319,31.366C545.701,591.29,522.91,571.587,522.91,540.823z M588.512,525.742 c-1.917-16.889-10.011-27.345-20.874-27.345c-11.075,0-18.742,11.059-20.659,27.747L588.512,525.742z"></path> <path d="M634.949,540.621c0-31.567,21.939-50.468,46.432-50.468c15.762,0,29.18,8.646,37.7,20.911l-18.743,14.076l-1.917-0.804 c-2.556-15.081-9.16-26.14-19.808-26.14c-9.158,0-20.235,12.064-20.235,32.975c0,26.743,14.911,42.626,35.144,42.626 c10.224,0,19.169-5.027,24.708-13.069l2.768,1.608c-5.964,17.895-19.808,28.953-38.551,28.953 C657.101,591.29,634.949,572.189,634.949,540.621z"></path> <path d="M746.776,563.945v-62.734H736.34v-5.831c10.862-6.635,26.197-17.693,33.014-28.953h2.981v26.139h27.689l-1.704,8.646 h-25.772l-0.426,55.897c-0.213,15.885,7.881,19.505,15.548,19.505c4.047,0,9.16-1.61,13.418-5.229l1.917,2.212 c-7.028,10.456-15.973,17.493-29.393,17.493C759.556,591.09,746.776,582.645,746.776,563.945z"></path> </g> <g> <path d="M211.66,691.006c0-45.24,30.245-74.396,73.908-74.396c43.876,0,74.121,29.357,74.121,74.396 c0,45.04-30.245,74.598-74.121,74.598C241.904,765.604,211.66,736.247,211.66,691.006z M328.804,702.266 c0-30.16-13.844-76.004-47.284-76.004c-23.855,0-39.191,21.514-39.191,53.686c0,30.764,14.483,76.004,47.71,76.004 C312.191,755.952,328.804,736.046,328.804,702.266z"></path> <path d="M388.452,736.649v-37.599c0-16.487-1.491-20.51-13.205-26.139v-2.614c12.566-1.006,26.198-3.017,38.977-6.835 c0,21.916-0.426,43.028-0.426,64.944c0,14.879,7.668,20.51,16.401,20.51c8.093,0,15.974-5.027,22.364-11.864v-38.001 c0-16.287-0.852-20.108-13.206-26.139v-2.614c12.566-0.804,26.198-3.017,38.977-6.635v74.598c0,13.068,2.343,14.677,13.845,17.893 v2.615l-38.977,6.837v-20.51c-9.584,12.668-22.577,20.51-36.209,20.51C404.427,765.604,388.452,758.365,388.452,736.649z"></path> <path d="M511.996,737.655v-62.734H501.56v-5.831c10.863-6.635,26.199-17.693,33.014-28.953h2.983v26.139h27.687l-1.704,8.646 h-25.772l-0.425,55.896c-0.213,15.885,7.881,19.506,15.548,19.506c4.047,0,9.158-1.61,13.418-5.229l1.917,2.212 c-7.03,10.456-15.975,17.493-29.393,17.493C524.776,764.8,511.996,756.354,511.996,737.655z"></path> <path d="M576.537,760.375c11.501-4.625,14.058-6.635,14.058-22.318v-92.693c0-19.906-3.621-21.112-14.271-26.139v-2.614 c13.418-0.804,26.836-3.015,40.042-6.835v128.282c0,15.683,2.556,17.693,14.271,22.318v2.614h-54.099V760.375z"></path> <path d="M642.568,714.532c0-30.362,21.725-50.669,48.562-50.669c24.495,0,41.534,16.085,41.534,40.214v4.423H666.21v2.212 c0,20.912,15.335,36.795,35.144,36.795c11.501,0,22.365-5.831,28.116-15.281l2.555,1.408C726.7,751.729,711.578,765,690.705,765 C665.359,765,642.568,745.296,642.568,714.532z M708.171,699.452c-1.917-16.889-10.011-27.345-20.874-27.345 c-11.075,0-18.743,11.058-20.659,27.747L708.171,699.452z"></path> <path d="M758.655,737.655v-62.734h-10.435v-5.831c10.862-6.635,26.197-17.693,33.014-28.953h2.981v26.139h27.689l-1.704,8.646 h-25.772l-0.426,55.896c-0.213,15.885,7.881,19.506,15.548,19.506c4.047,0,9.16-1.61,13.418-5.229l1.917,2.212 c-7.028,10.456-15.973,17.493-29.393,17.493C771.435,764.8,758.655,756.354,758.655,737.655z"></path> </g> </g> </svg> 