<?xml version="1.0" encoding="UTF-8"?>
<svg xmlns="http://www.w3.org/2000/svg" xmlns:xlink="http://www.w3.org/1999/xlink" version="1.1" id="Layer_1" x="0px" y="0px" viewBox="0 0 600 130" xml:space="preserve">
<g>
	<path fill-rule="evenodd" clip-rule="evenodd" d="M23.274,55.233c-4.827,4.595-7.306,10.299-8.605,16.417   c-2.088,9.831-1.564,19.67,1.6,29.225c3.979,12.016,13.888,19.101,26.473,19.285c12.366,0.18,22.579-6.607,26.679-18.545   c4.22-12.289,4.243-24.622-1.971-36.421c-4.687-8.899-12.052-14.586-21.722-17.329c-0.976-0.277-1.884-0.794-2.73-1.728   c0.502-0.059,1.015-0.213,1.507-0.165c14.066,1.392,26.006,6.79,33.917,18.983c11.28,17.384,5.516,41.089-12.249,51.678   c-7.142,4.256-14.833,6.84-23.097,6.84c-22.353,0.003-43.985-15.946-41.694-43.098c0.872-10.33,5.699-18.9,14.157-25.275   C18.252,53.056,20.632,53.138,23.274,55.233z M68.927,24.952c-0.212-10.067,1.894-9.858-9.969-14.234   C45.54,5.77,32.247,6.634,20.625,16.011C9.974,24.606,9.489,41.228,20.27,49.118c5.643,4.13,12.041,7.245,18.18,10.673   c4.703,2.625,9.567,4.96,14.299,7.534c11.84,6.439,13.055,26.137,0.254,33.683c-6.61,3.897-13.604,4.807-20.843,2.92   c-3.968-1.034-7.685-3.031-11.477-4.577c0.835,1.959,1.887,3.816,4.265,4.842c9.938,4.287,19.892,3.962,29.757,0.04   c10.054-3.997,14.663-12.148,13.566-22.881c-1.46-14.275-9.165-23.866-21.715-30.268C40.082,47.78,33.5,44.354,27.829,39.89   c-8.73-6.872-8.104-19.31,0.541-25.162c8.499-5.753,20.673-4.971,28.491,1.756c4.683,4.031,8.144,8.899,10.495,14.596   c0.242,0.586,0.788,1.047,1.579,2.061C68.934,29.881,68.979,27.415,68.927,24.952z"></path>
	<path fill-rule="evenodd" clip-rule="evenodd" fill="#CAA34D" d="M22.059,54.018c-4.827,4.595-7.306,10.299-8.605,16.417   c-2.088,9.831-1.564,19.67,1.6,29.225c3.979,12.016,13.888,19.101,26.473,19.285c12.366,0.18,22.579-6.607,26.679-18.545   c4.22-12.289,4.243-24.622-1.971-36.421c-4.687-8.899-12.052-14.586-21.722-17.329c-0.976-0.277-1.884-0.794-2.73-1.728   c0.502-0.059,1.015-0.213,1.507-0.165c14.066,1.392,26.006,6.79,33.917,18.983c11.28,17.384,5.516,41.089-12.249,51.678   c-7.142,4.256-14.833,6.84-23.097,6.84c-22.353,0.003-43.985-15.946-41.694-43.098c0.872-10.33,5.699-18.9,14.157-25.275   C17.037,51.842,19.417,51.923,22.059,54.018z M67.712,23.737C67.5,13.67,69.606,13.879,57.743,9.503   c-13.418-4.949-26.71-4.084-38.333,5.293C8.759,23.391,8.275,40.013,19.055,47.903c5.643,4.13,12.041,7.245,18.18,10.673   c4.703,2.625,9.567,4.96,14.299,7.534c11.84,6.439,13.055,26.137,0.254,33.683c-6.61,3.897-13.604,4.807-20.843,2.92   c-3.968-1.034-7.685-3.031-11.477-4.577c0.835,1.959,1.887,3.816,4.265,4.842c9.938,4.287,19.892,3.962,29.757,0.04   c10.054-3.997,14.663-12.148,13.566-22.881c-1.46-14.275-9.165-23.866-21.715-30.268c-6.474-3.303-13.056-6.728-18.727-11.192   c-8.73-6.872-8.104-19.31,0.541-25.162c8.499-5.753,20.673-4.971,28.491,1.756c4.683,4.031,8.144,8.899,10.495,14.596   c0.242,0.586,0.788,1.047,1.579,2.061C67.72,28.666,67.764,26.201,67.712,23.737z"></path>
</g>
<g>
	<path d="M110.217,76.48l-0.969-15.465h1.145c5.02,9.645,12.242,16.712,19.464,16.712c5.548,0,9.335-3.492,9.335-8.231   c0-6.984-5.813-10.476-12.771-14.55c-9.424-5.321-16.293-9.146-16.293-18.957c0-9.978,8.455-15.798,18.407-15.798   c4.756,0,10.745,1.331,16.029,3.326l1.762,14.966h-1.145c-4.58-8.314-10.745-14.384-17.174-14.384   c-4.316,0-8.279,2.994-8.279,7.649c0,5.488,3.523,7.982,12.418,12.971c9.864,5.571,17.174,9.645,17.174,19.955   c0,12.139-10.128,17.128-19.376,17.128C123.868,81.802,116.382,79.391,110.217,76.48z"></path>
	<path d="M156.808,60.683c0-12.555,8.983-20.953,20.081-20.953c10.128,0,17.174,6.652,17.174,16.629v1.829h-27.479v0.915   c0,8.647,6.341,15.215,14.532,15.215c4.756,0,9.248-2.411,11.626-6.319l1.057,0.582c-2.202,7.483-8.455,12.971-17.086,12.971   C166.232,81.552,156.808,73.404,156.808,60.683z M183.935,54.447c-0.792-6.984-4.139-11.308-8.631-11.308   c-4.58,0-7.751,4.573-8.543,11.474L183.935,54.447z"></path>
	<path d="M197.764,79.64c4.756-1.912,5.813-2.743,5.813-9.229V32.081c0-8.231-1.498-8.73-5.901-10.809v-1.081   c5.548-0.333,11.097-1.247,16.558-2.827v53.047c0,6.485,1.057,7.316,5.901,9.229v1.081h-22.371V79.64z"></path>
	<path d="M223.57,60.683c0-12.555,8.983-20.953,20.081-20.953c10.128,0,17.174,6.652,17.174,16.629v1.829h-27.479v0.915   c0,8.647,6.341,15.215,14.532,15.215c4.756,0,9.248-2.411,11.626-6.319l1.057,0.582c-2.202,7.483-8.455,12.971-17.086,12.971   C232.994,81.552,223.57,73.404,223.57,60.683z M250.696,54.447c-0.792-6.984-4.139-11.308-8.631-11.308   c-4.58,0-7.751,4.573-8.543,11.474L250.696,54.447z"></path>
	<path d="M266.814,60.6c0-13.054,9.071-20.87,19.2-20.87c6.517,0,12.066,3.575,15.589,8.647l-7.75,5.82l-0.792-0.333   c-1.057-6.236-3.788-10.809-8.191-10.809c-3.788,0-8.367,4.988-8.367,13.636c0,11.058,6.165,17.626,14.532,17.626   c4.228,0,7.927-2.078,10.216-5.404l1.146,0.665c-2.466,7.4-8.191,11.973-15.942,11.973C275.974,81.552,266.814,73.653,266.814,60.6   z"></path>
	<path d="M309.971,70.244V44.303h-4.315v-2.411c4.492-2.744,10.833-7.317,13.651-11.973h1.233v10.809h11.449l-0.704,3.575h-10.657   l-0.176,23.115c-0.089,6.568,3.259,8.064,6.429,8.064c1.674,0,3.787-0.665,5.549-2.162l0.793,0.915   c-2.906,4.323-6.605,7.233-12.154,7.233C315.256,81.469,309.971,77.977,309.971,70.244z"></path>
	<path d="M357.267,50.955c0-18.708,12.507-30.764,30.562-30.764c18.144,0,30.649,12.139,30.649,30.764s-12.506,30.847-30.649,30.847   C369.773,81.802,357.267,69.662,357.267,50.955z M405.707,55.611c0-12.472-5.725-31.429-19.552-31.429   c-9.864,0-16.206,8.896-16.206,22.2c0,12.721,5.989,31.429,19.729,31.429C398.838,77.811,405.707,69.579,405.707,55.611z"></path>
	<path d="M428.871,69.829V54.281c0-6.818-0.616-8.481-5.461-10.809v-1.081c5.196-0.416,10.833-1.247,16.118-2.827   c0,9.063-0.177,17.793-0.177,26.856c0,6.152,3.171,8.48,6.782,8.48c3.347,0,6.605-2.078,9.247-4.905V54.281   c0-6.735-0.352-8.315-5.46-10.809v-1.081c5.196-0.333,10.833-1.247,16.117-2.744v30.847c0,5.404,0.969,6.069,5.725,7.399v1.081   l-16.117,2.827V73.32c-3.963,5.238-9.336,8.481-14.973,8.481C435.477,81.802,428.871,78.809,428.871,69.829z"></path>
	<path d="M478.458,70.244V44.303h-4.315v-2.411c4.492-2.744,10.833-7.317,13.651-11.973h1.233v10.809h11.449l-0.704,3.575h-10.657   l-0.176,23.115c-0.089,6.568,3.259,8.064,6.429,8.064c1.674,0,3.787-0.665,5.549-2.162l0.793,0.915   c-2.906,4.323-6.605,7.233-12.154,7.233C483.743,81.469,478.458,77.977,478.458,70.244z"></path>
	<path d="M503.647,79.64c4.756-1.912,5.813-2.743,5.813-9.229V32.081c0-8.231-1.497-8.73-5.901-10.809v-1.081   c5.549-0.333,11.098-1.247,16.559-2.827v53.047c0,6.485,1.057,7.316,5.9,9.229v1.081h-22.37V79.64z"></path>
	<path d="M529.453,60.683c0-12.555,8.984-20.953,20.081-20.953c10.129,0,17.175,6.652,17.175,16.629v1.829h-27.479v0.915   c0,8.647,6.342,15.215,14.532,15.215c4.756,0,9.248-2.411,11.626-6.319l1.057,0.582c-2.202,7.483-8.455,12.971-17.086,12.971   C538.877,81.552,529.453,73.404,529.453,60.683z M556.58,54.447c-0.793-6.984-4.14-11.308-8.631-11.308   c-4.58,0-7.751,4.573-8.543,11.474L556.58,54.447z"></path>
	<path d="M575.956,70.244V44.303h-4.315v-2.411c4.492-2.744,10.833-7.317,13.651-11.973h1.233v10.809h11.449l-0.704,3.575h-10.657   l-0.176,23.115c-0.089,6.568,3.259,8.064,6.429,8.064c1.674,0,3.787-0.665,5.549-2.162l0.793,0.915   c-2.906,4.323-6.605,7.233-12.154,7.233C581.241,81.469,575.956,77.977,575.956,70.244z"></path>
</g>
<g>
	<path d="M133.715,98.883c1.84,0,3.311,0.617,4.412,1.85c1.102,1.234,1.652,2.888,1.652,4.962c0,2.068-0.551,3.72-1.652,4.952   c-1.102,1.234-2.572,1.851-4.412,1.851c-1.846,0-3.321-0.615-4.425-1.846s-1.657-2.883-1.657-4.957s0.552-3.728,1.657-4.962   C130.394,99.5,131.869,98.883,133.715,98.883z M133.715,100.324c-1.289,0-2.313,0.48-3.072,1.441s-1.138,2.271-1.138,3.929   c0,1.652,0.379,2.959,1.138,3.92s1.783,1.441,3.072,1.441s2.31-0.48,3.063-1.441s1.129-2.268,1.129-3.92   c0-1.658-0.376-2.968-1.129-3.929S135.004,100.324,133.715,100.324z"></path>
	<path d="M151.662,99.12h2.013l5.001,13.122h-1.846l-1.195-3.366h-5.915l-1.195,3.366h-1.872L151.662,99.12z M152.664,100.869   l-2.408,6.53h4.825L152.664,100.869z"></path>
	<path d="M160.592,99.12h1.775v11.628h6.39v1.494h-8.165V99.12z"></path>
	<path d="M170.62,99.12h8.297v1.494h-6.521v3.885h6.249v1.494h-6.249v4.755h6.68v1.494h-8.455V99.12z"></path>
	<path d="M190.94,110.37v-3.524h-2.9v-1.459h4.658v5.634c-0.686,0.486-1.441,0.854-2.268,1.103   c-0.826,0.249-1.708,0.374-2.646,0.374c-2.051,0-3.655-0.599-4.812-1.798c-1.157-1.197-1.736-2.866-1.736-5.005   c0-2.145,0.579-3.815,1.736-5.015c1.157-1.197,2.761-1.797,4.812-1.797c0.855,0,1.668,0.105,2.439,0.316s1.481,0.521,2.131,0.932   v1.89c-0.656-0.557-1.354-0.976-2.092-1.257s-1.515-0.422-2.329-0.422c-1.605,0-2.811,0.448-3.617,1.345s-1.208,2.232-1.208,4.008   c0,1.77,0.403,3.103,1.208,3.999s2.011,1.345,3.617,1.345c0.627,0,1.187-0.054,1.679-0.163   C190.105,110.768,190.548,110.599,190.94,110.37z"></path>
	<path d="M195.941,99.12h8.297v1.494h-6.521v3.885h6.249v1.494h-6.249v4.755h6.68v1.494h-8.455V99.12z"></path>
	<path d="M213.537,106.09c0.381,0.129,0.751,0.404,1.112,0.826s0.722,1.002,1.085,1.74l1.802,3.586h-1.907l-1.679-3.366   c-0.434-0.879-0.854-1.462-1.261-1.749s-0.962-0.431-1.666-0.431h-1.934v5.546h-1.775V99.12h4.008c1.5,0,2.619,0.313,3.357,0.94   s1.107,1.573,1.107,2.839c0,0.826-0.192,1.512-0.576,2.057S214.27,105.879,213.537,106.09z M209.09,100.579v4.658h2.232   c0.855,0,1.501-0.198,1.938-0.593c0.437-0.396,0.655-0.978,0.655-1.745s-0.218-1.346-0.655-1.735s-1.083-0.585-1.938-0.585H209.09z   "></path>
	<path d="M219.821,99.12h8.297v1.494h-6.521v3.885h6.249v1.494h-6.249v4.755h6.68v1.494h-8.455V99.12z"></path>
	<path d="M236.916,99.12h1.775v13.122h-1.775V99.12z"></path>
	<path d="M242.225,99.12h2.391l5.818,10.978V99.12h1.723v13.122h-2.391l-5.818-10.978v10.978h-1.723V99.12z"></path>
	<path d="M263.556,99.551v1.731c-0.674-0.322-1.31-0.563-1.907-0.721s-1.175-0.237-1.731-0.237c-0.967,0-1.712,0.188-2.237,0.563   s-0.787,0.908-0.787,1.6c0,0.58,0.174,1.019,0.523,1.314s1.009,0.534,1.982,0.716l1.072,0.22c1.324,0.252,2.301,0.696,2.931,1.332   s0.945,1.486,0.945,2.553c0,1.271-0.426,2.235-1.279,2.892s-2.102,0.984-3.749,0.984c-0.621,0-1.282-0.07-1.982-0.211   s-1.425-0.349-2.175-0.624v-1.828c0.721,0.404,1.427,0.709,2.118,0.914s1.371,0.308,2.039,0.308c1.014,0,1.796-0.199,2.347-0.598   s0.826-0.967,0.826-1.705c0-0.645-0.198-1.148-0.593-1.512s-1.044-0.636-1.947-0.817l-1.081-0.211   c-1.324-0.264-2.282-0.677-2.874-1.239s-0.888-1.345-0.888-2.347c0-1.16,0.409-2.074,1.226-2.742s1.944-1.002,3.379-1.002   c0.615,0,1.242,0.056,1.881,0.167S262.888,99.328,263.556,99.551z"></path>
	<path d="M267.115,99.12h4.008c1.471,0,2.583,0.333,3.335,0.997c0.753,0.666,1.129,1.64,1.129,2.923   c0,1.295-0.376,2.273-1.129,2.936s-1.865,0.993-3.335,0.993h-2.232v5.273h-1.775V99.12z M268.891,100.579v4.931h2.232   c0.826,0,1.465-0.214,1.916-0.642s0.677-1.037,0.677-1.828c0-0.785-0.226-1.392-0.677-1.819s-1.09-0.642-1.916-0.642H268.891z"></path>
	<path d="M277.97,99.12h1.775v13.122h-1.775V99.12z"></path>
	<path d="M289.501,106.09c0.381,0.129,0.751,0.404,1.112,0.826s0.722,1.002,1.085,1.74l1.802,3.586h-1.907l-1.679-3.366   c-0.434-0.879-0.854-1.462-1.261-1.749s-0.962-0.431-1.666-0.431h-1.934v5.546h-1.775V99.12h4.008c1.5,0,2.619,0.313,3.357,0.94   s1.107,1.573,1.107,2.839c0,0.826-0.192,1.512-0.576,2.057S290.233,105.879,289.501,106.09z M285.054,100.579v4.658h2.232   c0.855,0,1.501-0.198,1.938-0.593c0.437-0.396,0.655-0.978,0.655-1.745s-0.218-1.346-0.655-1.735s-1.083-0.585-1.938-0.585H285.054   z"></path>
	<path d="M298.439,99.12h2.013l5.001,13.122h-1.846l-1.195-3.366h-5.915l-1.195,3.366h-1.872L298.439,99.12z M299.441,100.869   l-2.408,6.53h4.825L299.441,100.869z"></path>
	<path d="M304.152,99.12h11.101v1.494h-4.658v11.628h-1.784v-11.628h-4.658V99.12z"></path>
	<path d="M320.351,99.12h2.013l5.001,13.122h-1.846l-1.195-3.366h-5.915l-1.195,3.366h-1.872L320.351,99.12z M318.602,95.209h1.037   c0.064,0.439,0.238,0.77,0.522,0.988c0.284,0.221,0.682,0.33,1.191,0.33c0.504,0,0.896-0.108,1.178-0.325s0.46-0.548,0.536-0.993   h1.037c-0.059,0.838-0.319,1.468-0.782,1.89s-1.119,0.633-1.969,0.633s-1.506-0.211-1.969-0.633S318.66,96.047,318.602,95.209z    M321.353,100.869l-2.408,6.53h4.825L321.353,100.869z"></path>
	<path d="M335.002,99.12h4.008c1.471,0,2.582,0.333,3.335,0.997c0.753,0.666,1.13,1.64,1.13,2.923c0,1.295-0.377,2.273-1.13,2.936   s-1.864,0.993-3.335,0.993h-2.232v5.273h-1.775V99.12z M336.777,100.579v4.931h2.232c0.826,0,1.465-0.214,1.916-0.642   s0.677-1.037,0.677-1.828c0-0.785-0.226-1.392-0.677-1.819s-1.09-0.642-1.916-0.642H336.777z"></path>
	<path d="M345.856,99.12h8.297v1.494h-6.521v3.885h6.249v1.494h-6.249v4.755h6.68v1.494h-8.455V99.12z"></path>
	<path d="M357.229,99.12h2.391l5.818,10.978V99.12h1.723v13.122h-2.391l-5.818-10.978v10.978h-1.723V99.12z"></path>
	<path d="M368.875,99.12h11.101v1.494h-4.658v11.628h-1.784v-11.628h-4.658V99.12z"></path>
	<path d="M387.912,106.09c0.381,0.129,0.751,0.404,1.112,0.826c0.359,0.422,0.722,1.002,1.085,1.74l1.802,3.586h-1.907l-1.679-3.366   c-0.434-0.879-0.854-1.462-1.262-1.749s-0.962-0.431-1.665-0.431h-1.934v5.546h-1.775V99.12h4.008c1.5,0,2.619,0.313,3.357,0.94   s1.107,1.573,1.107,2.839c0,0.826-0.192,1.512-0.575,2.057C389.202,105.501,388.645,105.879,387.912,106.09z M383.465,100.579   v4.658h2.232c0.855,0,1.501-0.198,1.938-0.593c0.436-0.396,0.654-0.978,0.654-1.745s-0.219-1.346-0.654-1.735   c-0.438-0.39-1.083-0.585-1.938-0.585H383.465z"></path>
	<path d="M393.994,99.12h1.784v7.972c0,1.406,0.255,2.419,0.765,3.037s1.336,0.927,2.479,0.927c1.137,0,1.96-0.309,2.47-0.927   s0.765-1.631,0.765-3.037V99.12h1.784v8.191c0,1.711-0.424,3.003-1.271,3.876s-2.096,1.31-3.748,1.31   c-1.658,0-2.911-0.437-3.758-1.31s-1.27-2.165-1.27-3.876V99.12z"></path>
	<path d="M413.154,95.534h1.652l1.854,2.338h-1.222l-1.459-1.564l-1.459,1.564H411.3L413.154,95.534z M413.093,99.12h1.775v13.122   h-1.775V99.12z"></path>
	<path d="M418.401,99.12h2.391l5.818,10.978V99.12h1.723v13.122h-2.391l-5.818-10.978v10.978h-1.723V99.12z"></path>
	<path d="M430.047,99.12h11.101v1.494h-4.658v11.628h-1.784v-11.628h-4.658V99.12z"></path>
	<path d="M449.084,106.09c0.381,0.129,0.751,0.404,1.112,0.826c0.359,0.422,0.722,1.002,1.085,1.74l1.802,3.586h-1.907l-1.679-3.366   c-0.434-0.879-0.854-1.462-1.262-1.749s-0.962-0.431-1.665-0.431h-1.934v5.546h-1.775V99.12h4.008c1.5,0,2.619,0.313,3.357,0.94   s1.107,1.573,1.107,2.839c0,0.826-0.192,1.512-0.575,2.057C450.374,105.501,449.816,105.879,449.084,106.09z M444.637,100.579   v4.658h2.232c0.855,0,1.501-0.198,1.938-0.593c0.436-0.396,0.654-0.978,0.654-1.745s-0.219-1.346-0.654-1.735   c-0.438-0.39-1.083-0.585-1.938-0.585H444.637z"></path>
	<path d="M455.368,99.12h8.297v1.494h-6.521v3.885h6.249v1.494h-6.249v4.755h6.68v1.494h-8.455V99.12z"></path>
	<path d="M470.125,99.12h2.013l5.001,13.122h-1.846l-1.195-3.366h-5.915l-1.195,3.366h-1.872L470.125,99.12z M471.127,100.869   l-2.408,6.53h4.825L471.127,100.869z"></path>
	<path d="M487.686,110.37v-3.524h-2.9v-1.459h4.658v5.634c-0.686,0.486-1.441,0.854-2.268,1.103   c-0.826,0.249-1.708,0.374-2.646,0.374c-2.051,0-3.655-0.599-4.813-1.798c-1.157-1.197-1.735-2.866-1.735-5.005   c0-2.145,0.578-3.815,1.735-5.015c1.157-1.197,2.762-1.797,4.813-1.797c0.855,0,1.668,0.105,2.439,0.316   c0.77,0.211,1.48,0.521,2.131,0.932v1.89c-0.656-0.557-1.354-0.976-2.092-1.257s-1.515-0.422-2.329-0.422   c-1.605,0-2.812,0.448-3.616,1.345c-0.807,0.896-1.209,2.232-1.209,4.008c0,1.77,0.402,3.103,1.209,3.999   c0.805,0.896,2.011,1.345,3.616,1.345c0.627,0,1.187-0.054,1.679-0.163C486.851,110.768,487.293,110.599,487.686,110.37z"></path>
	<path d="M496.07,99.12h2.013l5.001,13.122h-1.846l-1.195-3.366h-5.915l-1.195,3.366h-1.872L496.07,99.12z M497.072,100.869   l-2.408,6.53h4.825L497.072,100.869z"></path>
	<path d="M510.722,99.12h7.541v1.494h-5.766v3.867h5.203v1.494h-5.203v6.267h-1.775V99.12z"></path>
	<path d="M522.807,99.12h2.013l5.001,13.122h-1.846l-1.195-3.366h-5.915l-1.195,3.366h-1.872L522.807,99.12z M523.809,100.869   l-2.408,6.53h4.825L523.809,100.869z"></path>
	<path d="M531.736,99.12h2.646l3.349,8.93l3.366-8.93h2.646v13.122h-1.731V100.72l-3.384,9h-1.784l-3.384-9v11.522h-1.723V99.12z"></path>
	<path d="M547.267,99.12h1.775v13.122h-1.775V99.12z"></path>
	<path d="M552.575,99.12h1.775v11.628h6.39v1.494h-8.165V99.12z"></path>
	<path d="M562.604,99.12h1.775v13.122h-1.775V99.12z"></path>
	<path d="M567.912,99.12h8.297v1.494h-6.521v3.885h6.249v1.494h-6.249v4.755h6.68v1.494h-8.455V99.12z"></path>
</g>
</svg>
